<svg xmlns="http://www.w3.org/2000/svg" xmlns:xlink="http://www.w3.org/1999/xlink" width="250" zoomAndPan="magnify" viewBox="0 0 187.5 187.499992" height="250" preserveAspectRatio="xMidYMid meet" version="1.0"><defs><clipPath id="6ceef10af3"><path d="M 0.886719 0 L 186.113281 0 L 186.113281 187 L 0.886719 187 Z M 0.886719 0 " clip-rule="nonzero"/></clipPath><clipPath id="e70309ac88"><path d="M 93.5 0 C 42.351562 0 0.886719 41.863281 0.886719 93.5 C 0.886719 145.140625 42.351562 187 93.5 187 C 144.648438 187 186.113281 145.140625 186.113281 93.5 C 186.113281 41.863281 144.648438 0 93.5 0 Z M 93.5 0 " clip-rule="nonzero"/></clipPath><clipPath id="b4e114ab5c"><path d="M 0.886719 0 L 186.113281 0 L 186.113281 187 L 0.886719 187 Z M 0.886719 0 " clip-rule="nonzero"/></clipPath><clipPath id="e2db8c450f"><path d="M 93.5 0 C 42.351562 0 0.886719 41.863281 0.886719 93.5 C 0.886719 145.140625 42.351562 187 93.5 187 C 144.648438 187 186.113281 145.140625 186.113281 93.5 C 186.113281 41.863281 144.648438 0 93.5 0 Z M 93.5 0 " clip-rule="nonzero"/></clipPath><clipPath id="c050cb7ef6"><rect x="0" width="187" y="0" height="187"/></clipPath></defs><g clip-path="url(#6ceef10af3)"><g clip-path="url(#e70309ac88)"><g transform="matrix(1, 0, 0, 1, 0, 0)"><g clip-path="url(#c050cb7ef6)"><g clip-path="url(#b4e114ab5c)"><g clip-path="url(#e2db8c450f)"><path fill="#c96442" d="M 0.886719 0 L 186.113281 0 L 186.113281 186.675781 L 0.886719 186.675781 Z M 0.886719 0 " fill-opacity="1" fill-rule="nonzero"/></g></g></g></g></g></g><path stroke-linecap="round" transform="matrix(3.116688, 0, 0, 3.116688, 56.100398, 56.100394)" fill="none" stroke-linejoin="round" d="M 11.017175 2.814108 C 11.038481 2.698802 11.078588 2.592268 11.137495 2.490748 C 11.196401 2.390482 11.271601 2.302748 11.360588 2.228802 C 11.450828 2.153602 11.551095 2.097202 11.660135 2.057095 C 11.770428 2.016988 11.883228 1.998188 11.999788 1.998188 C 12.116348 1.998188 12.230402 2.016988 12.339442 2.057095 C 12.449735 2.097202 12.548748 2.153602 12.638988 2.228802 C 12.729228 2.302748 12.803175 2.390482 12.862082 2.490748 C 12.920988 2.592268 12.961095 2.698802 12.982402 2.814108 L 14.033948 8.371389 C 14.071548 8.569416 14.136722 8.757416 14.230722 8.935389 C 14.324722 9.113363 14.442535 9.272536 14.585415 9.415416 C 14.727042 9.557043 14.887469 9.674856 15.065442 9.768856 C 15.242162 9.862856 15.430162 9.929283 15.628189 9.965629 L 21.185469 11.017176 C 21.300776 11.038483 21.408563 11.078589 21.508829 11.137496 C 21.609096 11.196403 21.696829 11.271603 21.772029 11.360589 C 21.845976 11.450829 21.903629 11.551096 21.942483 11.660136 C 21.982589 11.770429 22.002643 11.883229 22.002643 11.99979 C 22.002643 12.11635 21.982589 12.230403 21.942483 12.339443 C 21.903629 12.449736 21.845976 12.54875 21.772029 12.63899 C 21.696829 12.72923 21.609096 12.803176 21.508829 12.862083 C 21.408563 12.92099 21.300776 12.961096 21.185469 12.982403 L 15.628189 14.03395 C 15.430162 14.07155 15.242162 14.136723 15.065442 14.230723 C 14.887469 14.324723 14.727042 14.442536 14.585415 14.585416 C 14.442535 14.727043 14.324722 14.88747 14.230722 15.065443 C 14.136722 15.242163 14.071548 15.430163 14.033948 15.62819 L 12.982402 21.185471 C 12.961095 21.300777 12.920988 21.408564 12.862082 21.508831 C 12.803175 21.609097 12.729228 21.696831 12.638988 21.772031 C 12.548748 21.845977 12.449735 21.903631 12.339442 21.942484 C 12.230402 21.982591 12.116348 22.002644 11.999788 22.002644 C 11.883228 22.002644 11.770428 21.982591 11.660135 21.942484 C 11.551095 21.903631 11.450828 21.845977 11.360588 21.772031 C 11.271601 21.696831 11.196401 21.609097 11.137495 21.508831 C 11.078588 21.408564 11.038481 21.300777 11.017175 21.185471 L 9.965628 15.62819 C 9.929281 15.430163 9.862855 15.242163 9.768855 15.065443 C 9.674855 14.88747 9.557041 14.727043 9.415415 14.585416 C 9.272535 14.442536 9.113361 14.324723 8.935388 14.230723 C 8.757415 14.136723 8.569415 14.07155 8.371388 14.03395 L 2.814107 12.982403 C 2.698801 12.961096 2.592267 12.92099 2.490747 12.862083 C 2.39048 12.803176 2.302747 12.72923 2.2288 12.63899 C 2.1536 12.54875 2.0972 12.449736 2.057094 12.339443 C 2.016987 12.230403 1.998187 12.11635 1.998187 11.99979 C 1.998187 11.883229 2.016987 11.770429 2.057094 11.660136 C 2.0972 11.551096 2.1536 11.450829 2.2288 11.360589 C 2.302747 11.271603 2.39048 11.196403 2.490747 11.137496 C 2.592267 11.078589 2.698801 11.038483 2.814107 11.017176 L 8.371388 9.965629 C 8.569415 9.929283 8.757415 9.862856 8.935388 9.768856 C 9.113361 9.674856 9.272535 9.557043 9.415415 9.415416 C 9.557041 9.272536 9.674855 9.113363 9.768855 8.935389 C 9.862855 8.757416 9.929281 8.569416 9.965628 8.371389 Z M 11.017175 2.814108 " stroke="#000000" stroke-width="2" stroke-opacity="1" stroke-miterlimit="4"/><path stroke-linecap="round" transform="matrix(3.116688, 0, 0, 3.116688, 56.100398, 56.100394)" fill="none" stroke-linejoin="round" d="M 19.999816 1.999442 L 19.999816 6.000082 " stroke="#000000" stroke-width="2" stroke-opacity="1" stroke-miterlimit="4"/><path stroke-linecap="round" transform="matrix(3.116688, 0, 0, 3.116688, 56.100398, 56.100394)" fill="none" stroke-linejoin="round" d="M 22.000136 3.999762 L 17.999496 3.999762 " stroke="#000000" stroke-width="2" stroke-opacity="1" stroke-miterlimit="4"/><path stroke-linecap="round" transform="matrix(3.116688, 0, 0, 3.116688, 56.100398, 56.100394)" fill="none" stroke-linejoin="round" d="M 6.000081 19.999817 C 6.000081 20.131417 5.987548 20.261764 5.961228 20.389604 C 5.936161 20.518697 5.898561 20.64403 5.847174 20.765604 C 5.797041 20.887177 5.735628 21.002484 5.662934 21.111524 C 5.590241 21.220564 5.507521 21.320831 5.414774 21.414831 C 5.320774 21.507577 5.220507 21.590297 5.111467 21.662991 C 5.002427 21.735684 4.887121 21.797097 4.765547 21.847231 C 4.643974 21.898617 4.518641 21.936217 4.390801 21.961284 C 4.261707 21.987604 4.131361 22.000137 3.999761 22.000137 C 3.868161 22.000137 3.739067 21.987604 3.609974 21.961284 C 3.480881 21.936217 3.355547 21.898617 3.235227 21.847231 C 3.113654 21.797097 2.998347 21.735684 2.889307 21.662991 C 2.780267 21.590297 2.678747 21.507577 2.586001 21.414831 C 2.493254 21.320831 2.410534 21.220564 2.336587 21.111524 C 2.263894 21.002484 2.20248 20.887177 2.152347 20.765604 C 2.102214 20.64403 2.064614 20.518697 2.038294 20.389604 C 2.013227 20.261764 1.99944 20.131417 1.99944 19.999817 C 1.99944 19.868217 2.013227 19.739124 2.038294 19.61003 C 2.064614 19.480937 2.102214 19.355604 2.152347 19.23403 C 2.20248 19.11371 2.263894 18.998404 2.336587 18.889364 C 2.410534 18.77907 2.493254 18.678804 2.586001 18.586057 C 2.678747 18.49331 2.780267 18.41059 2.889307 18.336644 C 2.998347 18.26395 3.113654 18.202537 3.235227 18.152404 C 3.355547 18.10227 3.480881 18.06467 3.609974 18.03835 C 3.739067 18.013283 3.868161 17.999497 3.999761 17.999497 C 4.131361 17.999497 4.261707 18.013283 4.390801 18.03835 C 4.518641 18.06467 4.643974 18.10227 4.765547 18.152404 C 4.887121 18.202537 5.002427 18.26395 5.111467 18.336644 C 5.220507 18.41059 5.320774 18.49331 5.414774 18.586057 C 5.507521 18.678804 5.590241 18.77907 5.662934 18.889364 C 5.735628 18.998404 5.797041 19.11371 5.847174 19.23403 C 5.898561 19.355604 5.936161 19.480937 5.961228 19.61003 C 5.987548 19.739124 6.000081 19.868217 6.000081 19.999817 Z M 6.000081 19.999817 " stroke="#000000" stroke-width="2" stroke-opacity="1" stroke-miterlimit="4"/></svg>