<svg xmlns="http://www.w3.org/2000/svg" xmlns:xlink="http://www.w3.org/1999/xlink" width="250" zoomAndPan="magnify" viewBox="0 0 187.5 112.499997" height="150" preserveAspectRatio="xMidYMid meet" version="1.0"><defs><g/><clipPath id="0ec418e7b9"><path d="M 48 23 L 186.835938 23 L 186.835938 89 L 48 89 Z M 48 23 " clip-rule="nonzero"/></clipPath><clipPath id="79c7a8c886"><path d="M 110 24 L 138.835938 24 L 138.835938 60 L 110 60 Z M 110 24 " clip-rule="nonzero"/></clipPath><clipPath id="b9212f46b9"><rect x="0" width="139" y="0" height="66"/></clipPath><clipPath id="c152fb0b8f"><path d="M 0.164062 34.074219 L 43.605469 34.074219 L 43.605469 78 L 0.164062 78 Z M 0.164062 34.074219 " clip-rule="nonzero"/></clipPath><clipPath id="1f315e930c"><path d="M 21.886719 34.074219 C 9.890625 34.074219 0.164062 43.890625 0.164062 56 C 0.164062 68.109375 9.890625 77.929688 21.886719 77.929688 C 33.878906 77.929688 43.605469 68.109375 43.605469 56 C 43.605469 43.890625 33.878906 34.074219 21.886719 34.074219 Z M 21.886719 34.074219 " clip-rule="nonzero"/></clipPath><clipPath id="43634a12ea"><path d="M 0.164062 0.0742188 L 43.605469 0.0742188 L 43.605469 44 L 0.164062 44 Z M 0.164062 0.0742188 " clip-rule="nonzero"/></clipPath><clipPath id="a878fac9a0"><path d="M 21.886719 0.0742188 C 9.890625 0.0742188 0.164062 9.890625 0.164062 22 C 0.164062 34.109375 9.890625 43.929688 21.886719 43.929688 C 33.878906 43.929688 43.605469 34.109375 43.605469 22 C 43.605469 9.890625 33.878906 0.0742188 21.886719 0.0742188 Z M 21.886719 0.0742188 " clip-rule="nonzero"/></clipPath><clipPath id="a18389259a"><rect x="0" width="44" y="0" height="44"/></clipPath></defs><g clip-path="url(#0ec418e7b9)"><g transform="matrix(1, 0, 0, 1, 48, 23)"><g clip-path="url(#b9212f46b9)"><g fill="#000000" fill-opacity="1"><g transform="translate(0.848711, 48.772673)"><g><path d="M 4.359375 0 L 4.359375 -19.296875 L 0.984375 -19.296875 L 0.984375 -24.59375 L 4.359375 -24.59375 L 4.359375 -27.46875 C 4.359375 -30.445312 5.109375 -32.5625 6.609375 -33.8125 C 8.117188 -35.070312 10.164062 -35.703125 12.75 -35.703125 L 15.46875 -35.703125 L 15.46875 -30.296875 L 13.734375 -30.296875 C 12.640625 -30.296875 11.863281 -30.082031 11.40625 -29.65625 C 10.945312 -29.226562 10.71875 -28.5 10.71875 -27.46875 L 10.71875 -24.59375 L 16.015625 -24.59375 L 16.015625 -19.296875 L 10.71875 -19.296875 L 10.71875 0 Z M 4.359375 0 "/></g></g></g><g fill="#000000" fill-opacity="1"><g transform="translate(17.660469, 48.772673)"><g><path d="M 11.703125 0.59375 C 9.585938 0.59375 7.851562 0.253906 6.5 -0.421875 C 5.144531 -1.097656 4.132812 -2 3.46875 -3.125 C 2.8125 -4.25 2.484375 -5.488281 2.484375 -6.84375 C 2.484375 -9.125 3.375 -10.972656 5.15625 -12.390625 C 6.9375 -13.816406 9.613281 -14.53125 13.1875 -14.53125 L 19.4375 -14.53125 L 19.4375 -15.125 C 19.4375 -16.8125 18.957031 -18.050781 18 -18.84375 C 17.039062 -19.632812 15.851562 -20.03125 14.4375 -20.03125 C 13.144531 -20.03125 12.019531 -19.722656 11.0625 -19.109375 C 10.101562 -18.503906 9.507812 -17.609375 9.28125 -16.421875 L 3.078125 -16.421875 C 3.242188 -18.203125 3.847656 -19.753906 4.890625 -21.078125 C 5.929688 -22.398438 7.273438 -23.414062 8.921875 -24.125 C 10.578125 -24.832031 12.429688 -25.1875 14.484375 -25.1875 C 17.984375 -25.1875 20.738281 -24.3125 22.75 -22.5625 C 24.769531 -20.8125 25.78125 -18.332031 25.78125 -15.125 L 25.78125 0 L 20.390625 0 L 19.78125 -3.96875 C 19.0625 -2.644531 18.046875 -1.550781 16.734375 -0.6875 C 15.429688 0.164062 13.753906 0.59375 11.703125 0.59375 Z M 13.140625 -4.359375 C 14.960938 -4.359375 16.375 -4.953125 17.375 -6.140625 C 18.382812 -7.335938 19.023438 -8.8125 19.296875 -10.5625 L 13.890625 -10.5625 C 12.203125 -10.5625 10.992188 -10.253906 10.265625 -9.640625 C 9.535156 -9.035156 9.171875 -8.285156 9.171875 -7.390625 C 9.171875 -6.429688 9.535156 -5.6875 10.265625 -5.15625 C 10.992188 -4.625 11.953125 -4.359375 13.140625 -4.359375 Z M 13.140625 -4.359375 "/></g></g></g><g fill="#000000" fill-opacity="1"><g transform="translate(46.275406, 48.772673)"><g><path d="M 22.765625 10.90625 L 22.765625 -3.515625 C 21.972656 -2.429688 20.921875 -1.472656 19.609375 -0.640625 C 18.304688 0.179688 16.613281 0.59375 14.53125 0.59375 C 12.21875 0.59375 10.148438 0.03125 8.328125 -1.09375 C 6.515625 -2.21875 5.078125 -3.753906 4.015625 -5.703125 C 2.960938 -7.648438 2.4375 -9.863281 2.4375 -12.34375 C 2.4375 -14.820312 2.960938 -17.03125 4.015625 -18.96875 C 5.078125 -20.90625 6.515625 -22.425781 8.328125 -23.53125 C 10.148438 -24.632812 12.21875 -25.1875 14.53125 -25.1875 C 16.382812 -25.1875 18.003906 -24.835938 19.390625 -24.140625 C 20.773438 -23.453125 21.898438 -22.476562 22.765625 -21.21875 L 23.453125 -24.59375 L 29.109375 -24.59375 L 29.109375 10.90625 Z M 15.875 -4.953125 C 17.914062 -4.953125 19.585938 -5.640625 20.890625 -7.015625 C 22.203125 -8.390625 22.859375 -10.148438 22.859375 -12.296875 C 22.859375 -14.441406 22.203125 -16.203125 20.890625 -17.578125 C 19.585938 -18.953125 17.914062 -19.640625 15.875 -19.640625 C 13.851562 -19.640625 12.179688 -18.960938 10.859375 -17.609375 C 9.535156 -16.253906 8.875 -14.5 8.875 -12.34375 C 8.875 -10.195312 9.535156 -8.425781 10.859375 -7.03125 C 12.179688 -5.644531 13.851562 -4.953125 15.875 -4.953125 Z M 15.875 -4.953125 "/></g></g></g><g fill="#000000" fill-opacity="1"><g transform="translate(78.609789, 48.772673)"><g><path d="M 6.640625 -28.421875 C 5.484375 -28.421875 4.53125 -28.765625 3.78125 -29.453125 C 3.039062 -30.148438 2.671875 -31.03125 2.671875 -32.09375 C 2.671875 -33.144531 3.039062 -34.007812 3.78125 -34.6875 C 4.53125 -35.363281 5.484375 -35.703125 6.640625 -35.703125 C 7.796875 -35.703125 8.742188 -35.363281 9.484375 -34.6875 C 10.234375 -34.007812 10.609375 -33.144531 10.609375 -32.09375 C 10.609375 -31.03125 10.234375 -30.148438 9.484375 -29.453125 C 8.742188 -28.765625 7.796875 -28.421875 6.640625 -28.421875 Z M 3.46875 0 L 3.46875 -24.59375 L 9.8125 -24.59375 L 9.8125 0 Z M 3.46875 0 "/></g></g></g><g fill="#000000" fill-opacity="1"><g transform="translate(91.85102, 48.772673)"><g><path d="M 4.359375 0 L 4.359375 -19.296875 L 0.984375 -19.296875 L 0.984375 -24.59375 L 4.359375 -24.59375 L 4.359375 -27.46875 C 4.359375 -30.445312 5.109375 -32.5625 6.609375 -33.8125 C 8.117188 -35.070312 10.164062 -35.703125 12.75 -35.703125 L 15.46875 -35.703125 L 15.46875 -30.296875 L 13.734375 -30.296875 C 12.640625 -30.296875 11.863281 -30.082031 11.40625 -29.65625 C 10.945312 -29.226562 10.71875 -28.5 10.71875 -27.46875 L 10.71875 -24.59375 L 16.015625 -24.59375 L 16.015625 -19.296875 L 10.71875 -19.296875 L 10.71875 0 Z M 4.359375 0 "/></g></g></g><g clip-path="url(#79c7a8c886)"><g fill="#000000" fill-opacity="1"><g transform="translate(109.65477, 48.772673)"><g><path d="M 6.296875 10.90625 L 12 -1.640625 L 10.515625 -1.640625 L 0.9375 -24.59375 L 7.828125 -24.59375 L 14.734375 -7.296875 L 21.921875 -24.59375 L 28.671875 -24.59375 L 13.046875 10.90625 Z M 6.296875 10.90625 "/></g></g></g></g></g></g></g><g clip-path="url(#c152fb0b8f)"><g clip-path="url(#1f315e930c)"><g transform="matrix(1, 0, 0, 1, 0, 34)"><g clip-path="url(#a18389259a)"><g clip-path="url(#43634a12ea)"><g clip-path="url(#a878fac9a0)"><path fill="#c96442" d="M 0.164062 0.0742188 L 43.605469 0.0742188 L 43.605469 43.851562 L 0.164062 43.851562 Z M 0.164062 0.0742188 " fill-opacity="1" fill-rule="nonzero"/></g></g></g></g></g></g><path stroke-linecap="round" transform="matrix(0.964464, 0, 0, 0.964464, 10.377307, 44.493106)" fill="none" stroke-linejoin="round" d="M 11.018144 2.813922 C 11.062696 2.579012 11.176101 2.380553 11.362409 2.226646 C 11.544667 2.07274 11.759327 1.995786 11.998288 1.995786 C 12.241298 1.995786 12.451908 2.07274 12.638216 2.226646 C 12.824524 2.380553 12.937929 2.579012 12.982481 2.813922 L 14.035527 8.370768 C 14.108431 8.775786 14.294739 9.124101 14.586352 9.415714 C 14.877965 9.707327 15.22223 9.889585 15.627248 9.966538 L 21.184093 11.015534 C 21.423054 11.060086 21.617462 11.177542 21.771369 11.3598 C 21.925276 11.546108 22.002229 11.760767 22.002229 11.999728 C 22.002229 12.242739 21.925276 12.453348 21.771369 12.639656 C 21.617462 12.825964 21.423054 12.939369 21.184093 12.983921 L 15.627248 14.032918 C 15.22223 14.109871 14.877965 14.292129 14.586352 14.583742 C 14.294739 14.875355 14.108431 15.22367 14.035527 15.628688 L 12.982481 21.185533 C 12.937929 21.424494 12.824524 21.618903 12.638216 21.772809 C 12.451908 21.926716 12.241298 22.00367 11.998288 22.00367 C 11.759327 22.00367 11.544667 21.926716 11.362409 21.772809 C 11.176101 21.618903 11.062696 21.424494 11.018144 21.185533 L 9.965098 15.628688 C 9.888144 15.22367 9.705886 14.875355 9.414273 14.583742 C 9.122661 14.292129 8.774345 14.109871 8.373377 14.032918 L 2.812482 12.983921 C 2.577572 12.939369 2.383163 12.825964 2.229256 12.639656 C 2.075349 12.453348 1.998396 12.242739 1.998396 11.999728 C 1.998396 11.760767 2.075349 11.546108 2.229256 11.3598 C 2.383163 11.177542 2.577572 11.060086 2.812482 11.015534 L 8.373377 9.966538 C 8.774345 9.889585 9.122661 9.707327 9.414273 9.415714 C 9.705886 9.124101 9.888144 8.775786 9.965098 8.370768 Z M 11.018144 2.813922 " stroke="#000000" stroke-width="2" stroke-opacity="1" stroke-miterlimit="4"/><path stroke-linecap="round" transform="matrix(0.964464, 0, 0, 0.964464, 10.377307, 44.493106)" fill="none" stroke-linejoin="round" d="M 20.001441 1.999836 L 20.001441 6.001413 " stroke="#000000" stroke-width="2" stroke-opacity="1" stroke-miterlimit="4"/><path stroke-linecap="round" transform="matrix(0.964464, 0, 0, 0.964464, 10.377307, 44.493106)" fill="none" stroke-linejoin="round" d="M 21.998179 4.000625 L 18.000653 4.000625 " stroke="#000000" stroke-width="2" stroke-opacity="1" stroke-miterlimit="4"/><path stroke-linecap="round" transform="matrix(0.964464, 0, 0, 0.964464, 10.377307, 44.493106)" fill="none" stroke-linejoin="round" d="M 5.999973 19.998831 C 5.999973 20.266143 5.94732 20.521304 5.846066 20.764315 C 5.744811 21.011376 5.603055 21.226035 5.412697 21.412343 C 5.226389 21.602702 5.011729 21.744458 4.764668 21.849763 C 4.521657 21.951017 4.266496 21.999619 3.999184 21.999619 C 3.735923 21.999619 3.480761 21.951017 3.233701 21.849763 C 2.99069 21.744458 2.77198 21.602702 2.585672 21.412343 C 2.399364 21.226035 2.253557 21.011376 2.152303 20.764315 C 2.051048 20.521304 1.998396 20.266143 1.998396 19.998831 C 1.998396 19.735569 2.051048 19.480408 2.152303 19.233347 C 2.253557 18.990337 2.399364 18.771627 2.585672 18.585319 C 2.77198 18.39901 2.99069 18.253204 3.233701 18.151949 C 3.480761 18.050695 3.735923 17.998043 3.999184 17.998043 C 4.266496 17.998043 4.521657 18.050695 4.764668 18.151949 C 5.011729 18.253204 5.226389 18.39901 5.412697 18.585319 C 5.603055 18.771627 5.744811 18.990337 5.846066 19.233347 C 5.94732 19.480408 5.999973 19.735569 5.999973 19.998831 Z M 5.999973 19.998831 " stroke="#000000" stroke-width="2" stroke-opacity="1" stroke-miterlimit="4"/></svg>